<?xml version="1.0" encoding="UTF-8" standalone="no"?>
<svg    
    id="svg3100"
    fill-rule="evenodd"
    viewBox="0 0 595.276 841.89">
  <path
      id="path3114"
      style="fill:#008000"
      d="m403.92 114.42c-88.527 8.8536-168.7 71.317-168.7 113.55 3.4386 3.4386 29.011 9.7329 36.769 9.7329 0.48561-0.48664 50.518-103.77 139.5-77.862 22.549 6.5651 40.512 38.687-29.198 73.536 0 13.582-1.0818 30.313-1.0818 38.932 52.916 0 155.72-119.5 155.72-143.83-42.06-14.01-89.7-16.02-133.01-14.05z"
  />
  <path
      id="path3116"
      style="fill:#008000"
      d="m451.5 244.19c-43.842 51.532-51.972 160.48-42.175 166.54 6.0578 3.7434 25.416 4.9564 35.686 3.2443 0-36.141 0.90613-132.9 47.582-150.32 63.35-23.638 32.443 84.477 32.443 85.433 6.2933 3.1451 20.399 23.494 23.791 30.28h1.0818c29.455-29.456 34.959-158.96 12.977-224.93-28.244 5.5949-92.243 67.255-111.39 89.758z"
  />
  <path
      id="path3118"
      style="fill:#008000"
      d="m337.01 174.46c-3.5046 1.7527-20.742 12.179-25.091 18.56-0.63742 0.93525-1.1557 2.5719 0.26321 4.0817 45.665 45.665 22.909 107.28-3.4248 133.6v2.1625c2.8486 2.8476 20.533 21.6 21.628 23.791 7.4309 0 88.85-103.62 14.059-178.43-2.3444-2.3444-3.3048-5.8263-7.4345-3.7619z"
  />
  <path
      id="path3120"
      style="fill:#008000"
      d="m71.924 128.48c0 15.556 56.856 84.379 74.618 99.491 49.011 41.699 110.04 60.291 176.27 56.233 11.634-0.71292 10.041-29.513 8.6511-37.849-43.842 0-89.371 3.3383-133.01-28.117-35.555-25.627-29.532-81.166 59.477-52.989 4.5141 1.4279 2.176 1.0808 7.5694 1.0808 8.148-8.1469 20.664-18.443 31.361-23.791v-1.0818c-43.97-43.958-167.88-31.98-224.94-12.97z"
  />
  <path
      id="path3122"      style="fill:#008000"
      d="m400.67 320.97c-20.743 7.7791-90.838 47.042-90.838 61.641 10.324 10.324 18.077 20.239 21.628 23.791h1.0808c34.763-34.763 62.029-32.792 66.785-49.267 1.9768-6.848 3.3748-16.851 7.834-36.165-2.1646-2.1646-3.7661-0.90819-6.4896 0z"
  />
  <path
      id="path3124"
      style="fill:#008000"
      d="m237.38 285.29c0 20.729 52.076 96.245 62.722 96.245 9.1533-9.1533 21.222-19.061 23.792-21.628v-1.0818c-31.237-31.236-38.609-53.807-43.257-59.478-2.984-3.8689-1.7458-5.9405-8.3063-7.7416-6.5606-1.8011-14.655-1.6587-33.87-7.3981z"
  />
  <path
      id="path3126"      style="fill:#008000"
      d="m155.87 316.65c-40.58 5.77-52.147 21.773-62.319 31.361 0 6.2551 13.162 29.838 19.465 32.442 45.7-45.7 109.11-23.92 135.18 2.1636h2.1625c2.9695-2.9695 21.636-20.552 23.792-21.629 0-4.7342-77.698-50.107-118.28-44.337z"
  />
  <path
      id="path3128"
      style="fill:#008000"
      d="m307.67 393.43c-9.6007 9.5996-17.822 15.66-22.71 20.547v1.0818c30.307 30.307 44.109 51.808 47.716 59.478 8.0551 13.704-8.966 2.894 32.309 14.058 3.6152 1.0518 1.7854 1.0818 5.4068 1.0818 8.6222-8.6222-49.656-97.327-61.641-97.327z"
  />
  <path
      id="path3130"
      style="fill:#008000"
      d="m275.23 368.56c-14.229 14.229-42.236 34.706-60.559 43.257-1.687 0.78725-4.137 2.295-4.5228 4.3004-2.0304 10.555-3.2518 24.834-7.1932 34.743-0.38329 2.7209 1.0262 3.0358 3.1433 2.7076 19.953-3.0928 92.923-50.688 92.923-62.299-10.437-10.437-17.828-19.989-21.627-23.791h-1.0818z"
  />
  <path
      id="path3132"
      style="fill:#008000"
      d="m42.35 159.6c-50.447 163.68 49.088 296.79 104.35 296.09 3.5169-3.6076 9.3486-30.245 9.264-36.89-0.43523-0.42224-71.081-17.453-81.492-114.68-4.3778-40.887 33.714-77.058 75.762 4.4427 14.315-0.18225 28.608 0.71765 38.941 0.58609-0.64-50.9-97.428-140.34-146.82-149.55z"
  />
  <path
      id="path3134"
      style="fill:#008000"
      d="m357.42 392.35c-2.9457 2.9457-20.463 19.423-22.709 20.547 0 8.1149 104.94 87.526 177.35 15.14 1.5168-1.5168 3.0656-2.8262 3.3-4.1134 0-10.517-13.806-27.805-17.359-30.492h-2.1625c-46.379 46.38-110.61 22.417-135.18-2.1636h-2.1625z"
  />
  <path
      id="path3136"
      style="fill:#008000"
      d="m221.16 502.65c-41.622 10.412-74.588 44.301-103.82 73.537-7.7698 7.7708-45.42 59.744-45.42 69.21 90.621 24.716 208.8 25.53 274.68-51.908 7.0331-8.2668 27.035-37.977 27.035-47.583-2.9726-2.9726-27.838-9.7329-36.768-9.7329-0.8493 0.85034-11.453 40.334-49.744 59.478-112.99 56.489-146.22-16.06-67.751-51.874 2.4973-1.0353 5.0091-1.5188 8.5282-3.2784-2.1847-12.567-1.5943-28.862-0.25597-38.931-4.0792 0-2.5366-0.2366-6.4886 1.0808z"
  />
  <path
      id="path3138"
      style="fill:#008000"
      d="m275.23 418.3c-37.5 37.5-66.315 121.84-10.814 177.35 7.1654 7.1685 26.777-11.765 33.524-15.14v-2.1625c-45.686-45.686-23.986-109.04 2.1625-135.18v-2.1625c-3.2278-3.2288-20.268-21.071-21.628-23.792-2.6378 0-1.868-0.29343-3.2443 1.0818z"
  />
  <path
      id="path3140"
      style="fill:#008000"
      d="m163.84 359.9c0 28.334 4.7022 47.478-5.4068 82.187-7.8742 27.039-25.649 76.307-62.722 70.292-29.068-4.7166-21.192-57.823-12.977-78.943 2.8316-7.28 0.17172-8.524-11.896-22.71-2.7229-2.1915-9.992-17.809-11.895-16.22-13.589 11.342-24.153 66.924-25.954 81.106-5.3698 42.289-9.7786 108.13 12.977 143.83 6.5692 10.305 70.207-45.337 80.025-55.153 21.399-21.396 15.865-16.391 31.361-34.605 9.9447-11.69 24.78-40.843 30.28-56.234 11.936-33.404 16.223-69.579 14.058-104.9-0.69846-11.399-29.491-10.044-37.85-8.6511z"
  />
  <path
      id="path3142"
      style="fill:#008000"
      d="m462.32 318.81c-2.8279 5.6589-8.6511 27.819-8.6511 35.687 0.009 0.009 66.704 17.795 78.944 105.98 7.47 53.825-32.856 84.578-72.856 7.7791-0.58737-1.1277-1.3976-3.5049-3.211-3.2301-2.7494 0.22296-25.393 0.0879-34.507-2.6414-1.8574-0.55619-3.047 0.54007-2.975 1.3367 0 40.705 100.13 141.33 143.83 155.72 29.711-108.94 19.198-257.54-96.246-300.63-2.083-0.86274-1.2419-1.0808-3.2443-1.0808z"
  />
  <path
      id="path3144"
      style="fill:#008000"
      d="m281.72 490.75c-4.8427 4.8427-6.1074 26.075-4.325 36.769 40.064 0 66.108-5.2818 112.47 16.22 20.496 9.5066 44.317 25.38 40.012 51.908-6.3006 38.829-82.66 10.3-86.513 11.895-0.47941 0.19941-22.785 19.504-31.361 23.791v1.0818c18.153 18.153 93.783 28.753 124.36 28.117 36.645-0.76251 66.157-5.3087 100.57-15.14 0-15.291-56.414-83.842-73.536-98.409-37.91-32.252-88.523-56.256-139.5-57.315-9.9127-0.20561-33.583-1.0673-42.176 1.0808z"
  />

</svg>
